HIERARCHY
ROOT Hips
{
	OFFSET	0.00	0.00	0.00
	CHANNELS 6 Xposition Yposition Zposition Zrotation Xrotation Yrotation
	JOINT LeftUpLeg
	{
		OFFSET	 0.126116	-0.014019	-0.065224
		CHANNELS 3 Zrotation Xrotation Yrotation
		JOINT LeftLeg
		{
			OFFSET	 0.000000	 0.000000	 0.569914
			CHANNELS 3 Zrotation Xrotation Yrotation
			JOINT LeftFoot
			{
				OFFSET	 0.000000	 0.000000	 0.544423
				CHANNELS 3 Zrotation Xrotation Yrotation
				JOINT LeftToeBase
				{
					OFFSET	 0.000000	 0.000000	 0.207117
					CHANNELS 3 Zrotation Xrotation Yrotation
					End Site
					{
						OFFSET	 0.000000	 0.000000	 0.207117
					}
				}
			}
		}
	}
	JOINT RightUpLeg
	{
		OFFSET	-0.124023	-0.008373	-0.065224
		CHANNELS 3 Zrotation Xrotation Yrotation
		JOINT RightLeg
		{
			OFFSET	 0.000000	 0.000000	 0.570047
			CHANNELS 3 Zrotation Xrotation Yrotation
			JOINT RightFoot
			{
				OFFSET	 0.000000	 0.000000	 0.544354
				CHANNELS 3 Zrotation Xrotation Yrotation
				JOINT RightToeBase
				{
					OFFSET	 0.000000	 0.000000	 0.207540
					CHANNELS 3 Zrotation Xrotation Yrotation
					End Site
					{
						OFFSET	 0.000000	 0.000000	 0.207540
					}
				}
			}
		}
	}
	JOINT Spine
	{
		OFFSET	 0.000184	-0.007763	 0.117403
		CHANNELS 3 Zrotation Xrotation Yrotation
		JOINT Spine1
		{
			OFFSET	 0.000000	 0.000000	 0.137269
			CHANNELS 3 Zrotation Xrotation Yrotation
			JOINT Spine2
			{
				OFFSET	 0.000000	 0.000000	 0.156879
				CHANNELS 3 Zrotation Xrotation Yrotation
				JOINT LeftShoulder
				{
					OFFSET	 0.080501	-0.002496	 0.160144
					CHANNELS 3 Zrotation Xrotation Yrotation
					JOINT LeftArm
					{
						OFFSET	 0.000000	 0.000000	 0.164363
						CHANNELS 3 Zrotation Xrotation Yrotation
						JOINT LeftForeArm
						{
							OFFSET	 0.000000	 0.000000	 0.364576
							CHANNELS 3 Zrotation Xrotation Yrotation
							JOINT LeftHand
							{
								OFFSET	 0.000000	 0.000000	 0.360812
								CHANNELS 3 Zrotation Xrotation Yrotation
								JOINT LeftHandIndex1
								{
									OFFSET	 0.000000	 0.000000	 0.086006
									CHANNELS 3 Zrotation Xrotation Yrotation
									JOINT LeftHandIndex2
									{
										OFFSET	 0.000000	 0.000000	 0.047236
										CHANNELS 3 Zrotation Xrotation Yrotation
										JOINT LeftHandIndex3
										{
											OFFSET	-0.004284	-0.000551	 0.038166
											CHANNELS 3 Zrotation Xrotation Yrotation
											End Site
											{
												OFFSET	-0.004284	-0.000551	 0.038166
											}
										}
									}
								}
							}
						}
					}
				}
				JOINT Neck
				{
					OFFSET	 0.000000	 0.000000	 0.176489
					CHANNELS 3 Zrotation Xrotation Yrotation
					JOINT Head
					{
						OFFSET	 0.000000	-0.001747	 0.077940
						CHANNELS 3 Zrotation Xrotation Yrotation
						End Site
						{
							OFFSET	 0.000000	-0.001747	 0.077940
						}
					}
				}
				JOINT RightShoulder
				{
					OFFSET	-0.080363	 0.000306	 0.159706
					CHANNELS 3 Zrotation Xrotation Yrotation
					JOINT RightArm
					{
						OFFSET	 0.000000	 0.000000	 0.164196
						CHANNELS 3 Zrotation Xrotation Yrotation
						JOINT RightForeArm
						{
							OFFSET	 0.000000	 0.000000	 0.365611
							CHANNELS 3 Zrotation Xrotation Yrotation
							JOINT RightHand
							{
								OFFSET	 0.000000	 0.000000	 0.360648
								CHANNELS 3 Zrotation Xrotation Yrotation
								JOINT RightHandIndex1
								{
									OFFSET	 0.000000	 0.000000	 0.069977
									CHANNELS 3 Zrotation Xrotation Yrotation
									JOINT RightHandIndex2
									{
										OFFSET	 0.000000	 0.000000	 0.052305
										CHANNELS 3 Zrotation Xrotation Yrotation
										JOINT RightHandIndex3
										{
											OFFSET	 0.009002	-0.000782	 0.042196
											CHANNELS 3 Zrotation Xrotation Yrotation
											End Site
											{
												OFFSET	 0.009002	-0.000782	 0.042196
											}
										}
									}
								}
							}
						}
					}
				}
			}
		}
	}
}
MOTION
Frames:    6
Frame Time: 0.03333334
-0.021645	 0.295074	 1.042675	 2.752736	 31.944980	-8.156303	 63.649570	-71.054820	-128.126800	 4.960521	-66.096830	 4.918250	 68.819130	 67.964870	-83.597480	-2.385832	 28.452790	-0.000001	 20.946340	-83.879390	-151.750100	-14.814380	-70.157640	-9.104016	-30.513930	 71.540640	 59.746060	 2.384659	 28.388700	-0.000001	-26.044130	 13.978490	 0.896508	-1.603496	 14.766140	 1.442706	-4.032030	 2.393304	 3.794487	-99.114660	 68.195790	 156.946800	 2.168865	-9.132933	-44.414280	 7.236066	-1.894685	-7.269479	-41.792010	-15.624350	-23.903000	-2.027600	 6.559038	 9.033609	-5.188889	 0.308190	 3.541030	-5.234859	 0.342567	 0.430617	 0.236484	 16.952870	-5.705796	-2.705096	-26.082220	-2.143300	 97.435310	 64.595430	-159.467800	-9.217247	 5.498081	 48.867800	-18.970930	-9.412978	 38.705490	 26.158760	-15.769330	 19.612030	 1.803333	 3.979147	-15.098590	 4.898592	 3.004813	-9.310344	 5.224449	 0.395017	 2.014677
-0.019632	 0.293242	 1.053487	 2.799985	 31.214020	-7.920171	 59.895520	-69.666820	-132.085500	 4.494254	-64.464970	 4.433135	 68.063010	 67.866110	-82.318280	-2.385832	 28.452790	-0.000001	 9.900374	-82.283550	-162.100000	-14.261300	-68.554330	-8.493482	-30.004750	 71.450310	 58.945590	 2.384659	 28.388700	-0.000001	-28.963400	 13.650420	 0.691995	-1.374692	 14.454610	 1.123495	-4.540994	 2.057551	 3.791337	-98.900180	 68.348770	 157.377000	 2.511944	-7.686558	-44.706810	 9.325861	-2.406434	-8.038897	-42.184330	-15.754740	-24.312390	-2.027600	 6.559038	 9.033609	-5.188889	 0.308190	 3.541030	-5.234859	 0.342567	 0.430617	-0.096136	 14.685510	-4.943246	-3.447878	-23.818270	-2.661787	 97.322510	 64.419940	-160.040900	-10.232730	 5.437767	 48.067780	-19.745890	-11.022050	 41.024060	 26.189900	-15.667880	 20.326080	 1.803333	 3.979147	-15.098590	 4.898592	 3.004813	-9.310344	 5.224449	 0.395017	 2.014677
-0.017888	 0.291319	 1.063055	 2.862084	 30.598630	-7.692443	 56.936830	-68.420940	-135.209900	 4.188194	-62.995480	 4.104507	 67.190930	 67.788170	-81.024510	-2.385832	 28.452790	-0.000001	 3.131874	-80.734990	-168.235800	-13.833130	-67.099610	-8.011448	-29.464110	 71.353080	 58.136340	 2.384659	 28.388700	-0.000001	-31.179930	 13.316480	 0.508345	-1.165023	 14.225940	 0.846259	-4.985523	 1.722152	 3.764579	-98.647250	 68.607800	 157.773900	 2.828973	-6.314380	-45.052760	 11.109620	-2.879950	-8.663984	-42.538250	-15.892420	-24.755790	-2.027600	 6.559038	 9.033609	-5.188889	 0.308190	 3.541030	-5.234859	 0.342567	 0.430617	-0.356125	 12.472380	-4.406926	-4.005271	-21.611780	-2.952622	 97.190120	 64.209520	-160.570300	-11.157890	 5.284451	 47.375010	-20.294150	-12.489390	 43.099980	 26.074420	-15.480430	 20.917190	 1.803333	 3.979147	-15.098590	 4.898592	 3.004813	-9.310344	 5.224449	 0.395017	 2.014677
-0.016162	 0.289150	 1.072695	 2.888325	 29.999280	-7.419319	 54.266940	-67.148740	-138.084700	 3.914395	-61.503770	 3.807885	 66.285020	 67.740160	-79.685420	-2.385832	 28.452790	-0.000001	-1.923977	-79.084270	-172.686900	-13.449600	-65.586620	-7.569922	-28.888760	 71.235080	 57.287660	 2.384659	 28.388700	-0.000001	-33.063740	 12.948370	 0.316671	-0.943782	 13.954120	 0.598761	-5.417619	 1.392883	 3.714444	-98.377080	 68.903700	 158.177600	 3.163654	-4.896200	-45.391560	 12.840440	-3.372791	-9.250198	-42.885850	-16.034360	-25.232010	-2.027600	 6.559038	 9.033609	-5.188889	 0.308190	 3.541030	-5.234859	 0.342567	 0.430617	-0.592580	 10.193520	-3.876006	-4.522599	-19.347930	-3.199974	 97.050930	 64.030260	-161.080400	-12.088510	 5.189517	 46.645930	-20.727510	-14.004890	 45.203300	 25.952270	-15.284000	 21.477260	 1.803333	 3.979147	-15.098590	 4.898592	 3.004813	-9.310344	 5.224449	 0.395017	 2.014677
-0.014378	 0.286470	 1.083446	 2.862165	 29.199680	-7.071575	 51.451330	-65.568080	-141.244600	 3.648072	-59.838260	 3.515797	 65.315950	 67.762010	-78.215030	-2.385832	 28.452790	-0.000001	-6.461080	-77.022480	-176.530300	-13.136260	-63.861990	-7.181906	-28.320780	 71.156400	 56.366540	 2.384659	 28.388700	-0.000001	-34.861370	 12.531530	 0.149078	-0.750446	 13.796830	 0.384484	-5.879982	 0.813556	 3.583564	-97.869250	 69.625040	 158.689000	 3.669338	-2.949328	-45.879590	 14.797990	-3.956336	-9.873773	-43.326350	-16.147710	-26.056720	-2.027600	 6.559038	 9.033609	-5.188889	 0.308190	 3.541030	-5.234859	 0.342567	 0.430617	-0.813941	 6.955007	-3.189587	-5.115737	-16.179070	-3.520632	 96.854160	 64.166300	-161.473900	-13.133280	 5.693263	 45.836630	-21.366910	-15.961310	 47.493740	 25.718250	-15.066140	 21.887960	 1.803333	 3.979147	-15.098590	 4.898592	 3.004813	-9.310344	 5.224449	 0.395017	 2.014677
-0.013153	 0.284135	 1.091862	 2.814952	 28.557300	-6.803850	 49.417580	-64.274150	-143.569700	 3.459568	-58.510500	 3.306677	 64.461880	 67.824170	-76.968930	-2.385833	 28.452760	 0.000004	-9.202531	-75.339070	-178.740100	-12.917400	-62.480660	-6.900868	-27.925380	 71.065220	 55.685830	 2.384659	 28.388700	-0.000001	-35.929820	 12.205520	 0.048005	-0.580102	 13.590480	 0.269627	-6.231335	 0.397974	 3.448858	-97.468030	 70.197840	 159.092000	 4.065351	-1.404213	-46.288010	 16.279990	-4.423497	-10.327840	-43.659800	-16.248070	-26.715000	-2.027600	 6.559038	 9.033609	-5.188889	 0.308190	 3.541030	-5.234859	 0.342567	 0.430617	-0.960614	 4.394711	-2.658841	-5.537083	-13.676820	-3.721091	 96.699520	 64.274440	-161.785200	-13.930590	 6.090087	 45.193380	-21.740150	-17.508740	 49.291710	 25.527930	-14.894000	 22.208850	 1.803333	 3.979147	-15.098590	 4.898592	 3.004813	-9.310344	 5.224449	 0.395017	 2.014677
